<?xml version="1.0" standalone="no"?><!DOCTYPE svg PUBLIC "-//W3C//DTD SVG 1.1//EN" "http://www.w3.org/Graphics/SVG/1.1/DTD/svg11.dtd"><svg t="1746625884046" class="icon" viewBox="0 0 1024 1024" version="1.1" xmlns="http://www.w3.org/2000/svg" p-id="4957" xmlns:xlink="http://www.w3.org/1999/xlink" width="200" height="200"><path d="M790.4 710.4c-12.8 12.8-32 12.8-44.8 0-12.8-12.8-12.8-32 0-44.8C800 608 832 531.2 832 448c0-176-144-320-320-320S192 272 192 448c0 83.2 32 160 89.6 220.8 12.8 12.8 12.8 32 0 44.8-12.8 12.8-32 12.8-44.8 0C166.4 643.2 128 547.2 128 448 128 236.8 300.8 64 512 64s384 172.8 384 384c0 99.2-38.4 192-105.6 262.4z" fill="#597EF7" p-id="4958"></path><path d="M352 768h320c19.2 0 32 12.8 32 32s-12.8 32-32 32H352c-19.2 0-32-12.8-32-32s12.8-32 32-32zM416 896h192c19.2 0 32 12.8 32 32s-12.8 32-32 32h-192c-19.2 0-32-12.8-32-32s12.8-32 32-32z" fill="#50E3C2" p-id="4959"></path></svg>