<svg id="visual" viewBox="0 0 900 600" width="900" height="600" xmlns="http://www.w3.org/2000/svg" xmlns:xlink="http://www.w3.org/1999/xlink" version="1.1"><rect x="0" y="0" width="900" height="600" fill="#002233"></rect><path d="M0 485L21.5 477C43 469 86 453 128.8 435.7C171.7 418.3 214.3 399.7 257.2 403.3C300 407 343 433 385.8 447.2C428.7 461.3 471.3 463.7 514.2 451.5C557 439.3 600 412.7 642.8 411.8C685.7 411 728.3 436 771.2 458.2C814 480.3 857 499.7 878.5 509.3L900 519L900 601L878.5 601C857 601 814 601 771.2 601C728.3 601 685.7 601 642.8 601C600 601 557 601 514.2 601C471.3 601 428.7 601 385.8 601C343 601 300 601 257.2 601C214.3 601 171.7 601 128.8 601C86 601 43 601 21.5 601L0 601Z" fill="#0066FF" stroke-linecap="round" stroke-linejoin="miter"></path></svg>