<svg width="7249" height="5214" xmlns="http://www.w3.org/2000/svg" xmlns:xlink="http://www.w3.org/1999/xlink" xml:space="preserve" overflow="hidden"><defs><clipPath id="clip0"><rect x="-1674" y="-820" width="7249" height="5214"/></clipPath></defs><g clip-path="url(#clip0)" transform="translate(1674 820)"><rect x="-1674" y="-820" width="7249" height="5214" fill="#B3C4CE"/><rect x="-1594" y="-358" width="3175" height="3835" fill="#CCE5E1"/><text font-family="Microsoft YaHei,Microsoft YaHei_MSFontService,sans-serif" font-weight="400" font-size="147" transform="matrix(1 0 0 1 -241.471 -594)">能源资源量评估模型</text><text font-family="Arial,Arial_MSFontService,sans-serif" font-weight="400" font-size="147" transform="matrix(1 0 0 1 1122.07 -594)">Energy</text><text font-family="Arial,Arial_MSFontService,sans-serif" font-weight="400" font-size="147" transform="matrix(1 0 0 1 1586.13 -594)">-</text><text font-family="Arial,Arial_MSFontService,sans-serif" font-weight="400" font-size="147" transform="matrix(1 0 0 1 1634.83 -594)">Resource Assessment Model (E</text><text font-family="Arial,Arial_MSFontService,sans-serif" font-weight="400" font-size="147" transform="matrix(1 0 0 1 3719.03 -594)">-</text><text font-family="Arial,Arial_MSFontService,sans-serif" font-weight="400" font-size="147" transform="matrix(1 0 0 1 3767.73 -594)">RAM)</text><path d="M-1508 269.577C-1508 219.001-1467 178-1416.42 178L182.423 178C232.999 178 274 219.001 274 269.577L274 2263.42C274 2314 232.999 2355 182.423 2355L-1416.42 2355C-1467 2355-1508 2314-1508 2263.42Z" fill="#AED2D1" fill-rule="evenodd"/><text font-family="Microsoft YaHei,Microsoft YaHei_MSFontService,sans-serif" font-weight="400" font-size="83" transform="matrix(1 0 0 1 -1439.95 846)">地理</text><text font-family="Microsoft YaHei,Microsoft YaHei_MSFontService,sans-serif" font-weight="400" font-size="83" transform="matrix(1 0 0 1 -1439.95 945)">信息</text><text font-family="Microsoft YaHei,Microsoft YaHei_MSFontService,sans-serif" font-weight="400" font-size="83" transform="matrix(1 0 0 1 -1439.95 1044)">数据</text><text font-family="Arial,Arial_MSFontService,sans-serif" font-weight="400" font-size="83" transform="matrix(1 0 0 1 -1384.95 1144)">&amp;</text><text font-family="DengXian,DengXian_MSFontService,sans-serif" font-weight="400" font-size="83" transform="matrix(1 0 0 1 -1439.95 1240)">气象</text><text font-family="DengXian,DengXian_MSFontService,sans-serif" font-weight="400" font-size="83" transform="matrix(1 0 0 1 -1439.95 1340)">数据</text><path d="M-1207 240.932C-1207 237.104-1203.9 234-1200.07 234L-166.932 234C-163.103 234-160 237.104-160 240.932L-160 409.068C-160 412.896-163.103 416-166.932 416L-1200.07 416C-1203.9 416-1207 412.896-1207 409.068Z" fill="#96BDBB" fill-rule="evenodd"/><text font-family="DengXian,DengXian_MSFontService,sans-serif" font-weight="400" font-size="92" transform="matrix(1 0 0 1 -1052.76 356)">土地利用</text><text font-family="Arial,Arial_MSFontService,sans-serif" font-weight="400" font-size="92" transform="matrix(1 0 0 1 -660.881 356)">land use</text><path d="M-1207 460.932C-1207 457.104-1203.9 454-1200.07 454L-166.932 454C-163.103 454-160 457.104-160 460.932L-160 629.068C-160 632.896-163.103 636-166.932 636L-1200.07 636C-1203.9 636-1207 632.896-1207 629.068Z" fill="#96BDBB" fill-rule="evenodd"/><text font-family="DengXian,DengXian_MSFontService,sans-serif" font-weight="400" font-size="92" transform="matrix(1 0 0 1 -897.496 576)">坡度</text><text font-family="Arial,Arial_MSFontService,sans-serif" font-weight="400" font-size="92" transform="matrix(1 0 0 1 -688.954 576)">slope</text><path d="M-1207 680.932C-1207 677.104-1203.9 674-1200.07 674L-166.932 674C-163.103 674-160 677.104-160 680.932L-160 849.068C-160 852.896-163.103 856-166.932 856L-1200.07 856C-1203.9 856-1207 852.896-1207 849.068Z" fill="#96BDBB" fill-rule="evenodd"/><text font-family="DengXian,DengXian_MSFontService,sans-serif" font-weight="400" font-size="92" transform="matrix(1 0 0 1 -971.402 796)">高程</text><text font-family="Arial,Arial_MSFontService,sans-serif" font-weight="400" font-size="92" transform="matrix(1 0 0 1 -762.86 796)">elevation</text><path d="M-1207 900.932C-1207 897.104-1203.9 894-1200.07 894L-166.932 894C-163.103 894-160 897.104-160 900.932L-160 1069.07C-160 1072.9-163.103 1076-166.932 1076L-1200.07 1076C-1203.9 1076-1207 1072.9-1207 1069.07Z" fill="#96BDBB" fill-rule="evenodd"/><text font-family="DengXian,DengXian_MSFontService,sans-serif" font-weight="400" font-size="92" transform="matrix(1 0 0 1 -1090.57 1016)">保护区</text><text font-family="Arial,Arial_MSFontService,sans-serif" font-weight="400" font-size="92" transform="matrix(1 0 0 1 -790.36 1016)">reserve area</text><path d="M-1207 1120.93C-1207 1117.1-1203.9 1114-1200.07 1114L-166.932 1114C-163.103 1114-160 1117.1-160 1120.93L-160 1289.07C-160 1292.9-163.103 1296-166.932 1296L-1200.07 1296C-1203.9 1296-1207 1292.9-1207 1289.07Z" fill="#96BDBB" fill-rule="evenodd"/><text font-family="DengXian,DengXian_MSFontService,sans-serif" font-weight="400" font-size="92" transform="matrix(1 0 0 1 -1081.12 1236)">航道</text><text font-family="Arial,Arial_MSFontService,sans-serif" font-weight="400" font-size="92" transform="matrix(1 0 0 1 -872.574 1236)">shipping lanes</text><path d="M-1207 1434.93C-1207 1431.1-1203.9 1428-1200.07 1428L-166.932 1428C-163.103 1428-160 1431.1-160 1434.93L-160 1603.07C-160 1606.9-163.103 1610-166.932 1610L-1200.07 1610C-1203.9 1610-1207 1606.9-1207 1603.07Z" fill="#96BDBB" fill-rule="evenodd"/><text font-family="DengXian,DengXian_MSFontService,sans-serif" font-weight="400" font-size="92" transform="matrix(1 0 0 1 -1019.81 1550)">风速</text><text font-family="Arial,Arial_MSFontService,sans-serif" font-weight="400" font-size="92" transform="matrix(1 0 0 1 -811.272 1550)">wind speed</text><path d="M-1207 1663.93C-1207 1660.1-1203.9 1657-1200.07 1657L-166.932 1657C-163.103 1657-160 1660.1-160 1663.93L-160 1832.07C-160 1835.9-163.103 1839-166.932 1839L-1200.07 1839C-1203.9 1839-1207 1835.9-1207 1832.07Z" fill="#96BDBB" fill-rule="evenodd"/><text font-family="DengXian,DengXian_MSFontService,sans-serif" font-weight="400" font-size="92" transform="matrix(1 0 0 1 -994.605 1779)">短波辐射</text><text font-family="Arial,Arial_MSFontService,sans-serif" font-weight="400" font-size="92" transform="matrix(1 0 0 1 -602.73 1779)">SSRD</text><path d="M-1207 1892.93C-1207 1889.1-1203.9 1886-1200.07 1886L-166.932 1886C-163.103 1886-160 1889.1-160 1892.93L-160 2061.07C-160 2064.9-163.103 2068-166.932 2068L-1200.07 2068C-1203.9 2068-1207 2064.9-1207 2061.07Z" fill="#96BDBB" fill-rule="evenodd"/><text font-family="DengXian,DengXian_MSFontService,sans-serif" font-weight="400" font-size="92" transform="matrix(1 0 0 1 -1034.42 2008)">温度</text><text font-family="Arial,Arial_MSFontService,sans-serif" font-weight="400" font-size="92" transform="matrix(1 0 0 1 -825.881 2008)">temperature</text><path d="M-1207 2121.93C-1207 2118.1-1203.9 2115-1200.07 2115L-166.932 2115C-163.103 2115-160 2118.1-160 2121.93L-160 2290.07C-160 2293.9-163.103 2297-166.932 2297L-1200.07 2297C-1203.9 2297-1207 2293.9-1207 2290.07Z" fill="#96BDBB" fill-rule="evenodd"/><text font-family="DengXian,DengXian_MSFontService,sans-serif" font-weight="400" font-size="92" transform="matrix(1 0 0 1 -1088.28 2237)">空气密度</text><text font-family="Arial,Arial_MSFontService,sans-serif" font-weight="400" font-size="92" transform="matrix(1 0 0 1 -696.402 2237)">air density</text><path d="M-159.5 309.5C-100.13 309.5-52.0016 347.153-52.0016 393.6L-52.0016 681.4C-52.0016 727.847-3.87288 765.5 55.4969 765.5-3.87288 765.5-52.0016 803.153-52.0016 849.6L-52.0016 1137.4C-52.0016 1183.85-100.13 1221.5-159.5 1221.5" stroke="#96BDBB" stroke-width="20.625" stroke-miterlimit="8" fill="none" fill-rule="evenodd"/><path d="M-156.5 1521.5C-97.4055 1521.5-49.5 1558.98-49.5 1605.21L-49.5 1780.29C-49.5 1826.52-1.59451 1864 57.4999 1864-1.59451 1864-49.5 1901.48-49.5 1947.71L-49.5 2122.79C-49.5 2169.02-97.4055 2206.5-156.5 2206.5" stroke="#96BDBB" stroke-width="20.625" stroke-miterlimit="8" fill="none" fill-rule="evenodd"/><path d="M90.4999 755.188 487.548 755.188 487.548 775.813 90.4999 775.813ZM477.235 734.563 539.11 765.5 477.235 796.438Z" fill="#96BDBB"/><path d="M90.4999 1853.19 487.548 1853.19 487.548 1873.81 90.4999 1873.81ZM477.235 1832.56 539.11 1863.5 477.235 1894.44Z" fill="#96BDBB"/><path d="M574 607.332C574 599.969 579.969 594 587.332 594L1492.67 594C1500.03 594 1506 599.969 1506 607.332L1506 930.668C1506 938.031 1500.03 944 1492.67 944L587.332 944C579.969 944 574 938.031 574 930.668Z" fill="#AED2D1" fill-rule="evenodd"/><text font-family="DengXian,DengXian_MSFontService,sans-serif" font-weight="400" font-size="92" transform="matrix(1 0 0 1 764.988 745)">最大装机潜力</text><text font-family="Arial,Arial_MSFontService,sans-serif" font-weight="400" font-size="92" transform="matrix(1 0 0 1 637.227 858)">installation potential</text><path d="M574 1701.33C574 1693.97 579.969 1688 587.332 1688L1492.67 1688C1500.03 1688 1506 1693.97 1506 1701.33L1506 2024.67C1506 2032.03 1500.03 2038 1492.67 2038L587.332 2038C579.969 2038 574 2032.03 574 2024.67Z" fill="#AED2D1" fill-rule="evenodd"/><text font-family="DengXian,DengXian_MSFontService,sans-serif" font-weight="400" font-size="92" transform="matrix(1 0 0 1 810.821 1839)">逐小时出力</text><text font-family="Arial,Arial_MSFontService,sans-serif" font-weight="400" font-size="92" transform="matrix(1 0 0 1 775.3 1952)">hourly output</text><path d="M-1508 2452.8C-1508 2444.63-1501.37 2438-1493.2 2438L-174.801 2438C-166.626 2438-160 2444.63-160 2452.8L-160 2711.2C-160 2719.37-166.626 2726-174.801 2726L-1493.2 2726C-1501.37 2726-1508 2719.37-1508 2711.2Z" fill="#AED2D1" fill-rule="evenodd"/><text font-family="DengXian,DengXian_MSFontService,sans-serif" font-weight="400" font-size="92" transform="matrix(1 0 0 1 -1218.45 2558)">基于</text><text font-family="Arial,Arial_MSFontService,sans-serif" font-weight="400" font-size="92" transform="matrix(1 0 0 1 -1035.11 2558)">CV</text><text font-family="DengXian,DengXian_MSFontService,sans-serif" font-weight="400" font-size="92" transform="matrix(1 0 0 1 -907.352 2558)">计算的矢量</text><text font-family="DengXian,DengXian_MSFontService,sans-serif" font-weight="400" font-size="92" transform="matrix(1 0 0 1 -1108.72 2668)">屋顶面积数据</text><path d="M-1508 2786.8C-1508 2778.63-1501.37 2772-1493.2 2772L-171.8 2772C-163.626 2772-157 2778.63-157 2786.8L-157 3045.2C-157 3053.37-163.626 3060-171.8 3060L-1493.2 3060C-1501.37 3060-1508 3053.37-1508 3045.2Z" fill="#AED2D1" fill-rule="evenodd"/><text font-family="DengXian,DengXian_MSFontService,sans-serif" font-weight="400" font-size="92" transform="matrix(1 0 0 1 -1244.88 2892)">道路长度、人口密度</text><text font-family="DengXian,DengXian_MSFontService,sans-serif" font-weight="400" font-size="92" transform="matrix(1 0 0 1 -1244.88 3002)">建成面积、夜间灯光</text><path d="M-1508 3119.85C-1508 3111.65-1501.35 3105-1493.15 3105L-171.852 3105C-163.649 3105-157 3111.65-157 3119.85L-157 3379.15C-157 3387.35-163.649 3394-171.852 3394L-1493.15 3394C-1501.35 3394-1508 3387.35-1508 3379.15Z" fill="#AED2D1" fill-rule="evenodd"/><text font-family="DengXian,DengXian_MSFontService,sans-serif" font-weight="400" font-size="92" transform="matrix(1 0 0 1 -1397.56 3280)">训练构建</text><text font-family="Arial,Arial_MSFontService,sans-serif" font-weight="400" font-size="92" transform="matrix(1 0 0 1 -1030.89 3280)">XG</text><text font-family="Arial,Arial_MSFontService,sans-serif" font-weight="400" font-size="92" transform="matrix(1 0 0 1 -898.551 3280)">-</text><text font-family="Arial,Arial_MSFontService,sans-serif" font-weight="400" font-size="92" transform="matrix(1 0 0 1 -868.186 3280)">Boost</text><text font-family="DengXian,DengXian_MSFontService,sans-serif" font-weight="400" font-size="92" transform="matrix(1 0 0 1 -633.863 3280)">回归模型</text><path d="M-156.5 2582.5C-97.4055 2582.5-49.5 2619.98-49.5 2666.21L-49.5 2841.29C-49.5 2887.52-1.59451 2925 57.4999 2925-1.59451 2925-49.5 2962.48-49.5 3008.71L-49.5 3183.79C-49.5 3230.02-97.4055 3267.5-156.5 3267.5" stroke="#96BDBB" stroke-width="20.625" stroke-miterlimit="8" fill="none" fill-rule="evenodd"/><path d="M90.4999 2915.19 487.548 2915.19 487.548 2935.81 90.4999 2935.81ZM477.235 2894.56 539.11 2925.5 477.235 2956.44Z" fill="#96BDBB"/><path d="M574 2785.33C574 2777.97 579.969 2772 587.332 2772L1492.67 2772C1500.03 2772 1506 2777.97 1506 2785.33L1506 3108.67C1506 3116.03 1500.03 3122 1492.67 3122L587.332 3122C579.969 3122 574 3116.03 574 3108.67Z" fill="#AED2D1" fill-rule="evenodd"/><text font-family="DengXian,DengXian_MSFontService,sans-serif" font-weight="400" font-size="92" transform="matrix(1 0 0 1 764.976 2923)">拟合屋顶面积</text><text font-family="Arial,Arial_MSFontService,sans-serif" font-weight="400" font-size="92" transform="matrix(1 0 0 1 745.222 3036)">fit rooftop area</text><path d="M574 2219.33C574 2211.97 579.969 2206 587.332 2206L1492.67 2206C1500.03 2206 1506 2211.97 1506 2219.33L1506 2542.67C1506 2550.03 1500.03 2556 1492.67 2556L587.332 2556C579.969 2556 574 2550.03 574 2542.67Z" fill="#AED2D1" fill-rule="evenodd"/><text font-family="DengXian,DengXian_MSFontService,sans-serif" font-weight="400" font-size="92" transform="matrix(1 0 0 1 719.154 2357)">分布式光伏潜力</text><text font-family="Arial,Arial_MSFontService,sans-serif" font-weight="400" font-size="92" transform="matrix(1 0 0 1 759.556 2470)">DPV potential</text><path d="M10.3125-2.10781e-05 10.3128 125.004-10.3122 125.004-10.3125 2.10781e-05ZM30.9377 114.692 0.000360892 176.567-30.9373 114.692Z" fill="#96BDBB" transform="matrix(1 0 0 -1 1042.5 2752.07)"/><text font-family="Microsoft YaHei,Microsoft YaHei_MSFontService,sans-serif" font-weight="400" font-size="110" transform="matrix(1 0 0 1 -659.989 -142)">风能太阳能发电资源量评估</text><text font-family="Arial,Arial_MSFontService,sans-serif" font-weight="400" font-size="110" transform="matrix(1 0 0 1 -896.328 -9)">Assessment of wind and solar power</text><rect x="1895" y="-358" width="3593" height="3835" fill="#CCE5E1"/><path d="M3039 578.204C3039 557.105 3056.1 540 3077.2 540L5381.8 540C5402.9 540 5420 557.105 5420 578.204L5420 1504.8C5420 1525.9 5402.9 1543 5381.8 1543L3077.2 1543C3056.1 1543 3039 1525.9 3039 1504.8Z" stroke="#96BDBB" stroke-width="10.3125" stroke-miterlimit="8" stroke-dasharray="41.25 30.9375" fill="none" fill-rule="evenodd"/><text font-family="Microsoft YaHei,Microsoft YaHei_MSFontService,sans-serif" font-weight="400" font-size="110" transform="matrix(1 0 0 1 2921.75 -142)">水力发电和抽水蓄能资源量评估</text><text font-family="Arial,Arial_MSFontService,sans-serif" font-weight="400" font-size="110" transform="matrix(1 0 0 1 2339.67 -9)">Assessment of hydro power and pumped hydro storage</text><path d="M1950 198.646C1950 193.871 1953.87 190 1958.65 190L3068.35 190C3073.13 190 3077 193.871 3077 198.646L3077 408.354C3077 413.129 3073.13 417 3068.35 417L1958.65 417C1953.87 417 1950 413.129 1950 408.354Z" fill="#AED2D1" fill-rule="evenodd"/><text font-family="DengXian,DengXian_MSFontService,sans-serif" font-weight="400" font-size="92" transform="matrix(1 0 0 1 2091.25 335)">河道矢量</text><text font-family="Arial,Arial_MSFontService,sans-serif" font-weight="400" font-size="92" transform="matrix(1 0 0 1 2483.13 335)">river vector</text><path d="M3077.5 294.188 3690.05 294.188 3690.05 314.813 3077.5 314.813ZM3679.74 273.563 3741.61 304.5 3679.74 335.438Z" fill="#96BDBB"/><text font-family="DengXian,DengXian_MSFontService,sans-serif" font-weight="400" font-size="83" transform="matrix(1 0 0 1 3120.31 238)">每隔</text><text font-family="DengXian,DengXian_MSFontService,sans-serif" font-weight="400" font-size="83" transform="matrix(1 0 0 1 3285.31 238)">4.5km</text><text font-family="DengXian,DengXian_MSFontService,sans-serif" font-weight="400" font-size="83" transform="matrix(1 0 0 1 3499.01 238)">生成</text><path d="M3741 198.647C3741 193.871 3744.87 190 3749.65 190L5406.35 190C5411.13 190 5415 193.871 5415 198.647L5415 408.353C5415 413.129 5411.13 417 5406.35 417L3749.65 417C3744.87 417 3741 413.129 3741 408.353Z" fill="#AED2D1" fill-rule="evenodd"/><text font-family="DengXian,DengXian_MSFontService,sans-serif" font-weight="400" font-size="92" transform="matrix(1 0 0 1 4033.43 335)">潜在水电位置</text><text font-family="Arial,Arial_MSFontService,sans-serif" font-weight="400" font-size="92" transform="matrix(1 0 0 1 4608.64 335)">potential site</text><path d="M3123 577.932C3123 574.103 3126.1 571 3129.93 571L4309.07 571C4312.9 571 4316 574.103 4316 577.932L4316 746.068C4316 749.897 4312.9 753 4309.07 753L3129.93 753C3126.1 753 3123 749.897 3123 746.068Z" fill="#AED2D1" fill-rule="evenodd"/><text font-family="DengXian,DengXian_MSFontService,sans-serif" font-weight="400" font-size="92" transform="matrix(1 0 0 1 3207.66 693)">淹没区域</text><text font-family="Arial,Arial_MSFontService,sans-serif" font-weight="400" font-size="92" transform="matrix(1 0 0 1 3599.54 693)">inundation area</text><path d="M1950 979.895C1950 976.087 1953.09 973 1956.89 973L2781.11 973C2784.91 973 2788 976.087 2788 979.895L2788 1147.11C2788 1150.91 2784.91 1154 2781.11 1154L1956.89 1154C1953.09 1154 1950 1150.91 1950 1147.11Z" fill="#AED2D1" fill-rule="evenodd"/><text font-family="DengXian,DengXian_MSFontService,sans-serif" font-weight="400" font-size="92" transform="matrix(1 0 0 1 2183.12 1095)">流向</text><text font-family="Arial,Arial_MSFontService,sans-serif" font-weight="400" font-size="92" transform="matrix(1 0 0 1 2391.66 1095)">flow</text><path d="M1950 761.894C1950 758.087 1953.09 755 1956.89 755L2781.11 755C2784.91 755 2788 758.087 2788 761.894L2788 929.106C2788 932.913 2784.91 936 2781.11 936L1956.89 936C1953.09 936 1950 932.913 1950 929.106Z" fill="#AED2D1" fill-rule="evenodd"/><text font-family="DengXian,DengXian_MSFontService,sans-serif" font-weight="400" font-size="92" transform="matrix(1 0 0 1 2081.14 877)">高程</text><text font-family="Arial,Arial_MSFontService,sans-serif" font-weight="400" font-size="92" transform="matrix(1 0 0 1 2289.68 877)">elevation</text><path d="M4464 765.609C4464 760.854 4467.85 757 4472.61 757L5354.39 757C5359.15 757 5363 760.854 5363 765.609L5363 974.392C5363 979.146 5359.15 983 5354.39 983L4472.61 983C4467.85 983 4464 979.146 4464 974.392Z" fill="#AED2D1" fill-rule="evenodd"/><text font-family="DengXian,DengXian_MSFontService,sans-serif" font-weight="400" font-size="83" transform="matrix(1 0 0 1 4624.64 899)">度电成本</text><text font-family="Arial,Arial_MSFontService,sans-serif" font-weight="400" font-size="83" transform="matrix(1 0 0 1 4977.55 899)">LCOE</text><path d="M4467 1305.61C4467 1300.85 4470.85 1297 4475.61 1297L5354.39 1297C5359.15 1297 5363 1300.85 5363 1305.61L5363 1514.39C5363 1519.15 5359.15 1523 5354.39 1523L4475.61 1523C4470.85 1523 4467 1519.15 4467 1514.39Z" fill="#AED2D1" fill-rule="evenodd"/><text font-family="DengXian,DengXian_MSFontService,sans-serif" font-weight="400" font-size="92" transform="matrix(1 0 0 1 4731.52 1386)">最优坝高</text><text font-family="Arial,Arial_MSFontService,sans-serif" font-weight="400" font-size="92" transform="matrix(1 0 0 1 4527.83 1499)">optimal dam height</text><path d="M3124 899.932C3124 896.104 3127.1 893 3130.93 893L4311.07 893C4314.9 893 4318 896.104 4318 899.932L4318 1068.07C4318 1071.9 4314.9 1075 4311.07 1075L3130.93 1075C3127.1 1075 3124 1071.9 3124 1068.07Z" fill="#AED2D1" fill-rule="evenodd"/><text font-family="DengXian,DengXian_MSFontService,sans-serif" font-weight="400" font-size="92" transform="matrix(1 0 0 1 3237.95 1015)">发电总成本</text><text font-family="Arial,Arial_MSFontService,sans-serif" font-weight="400" font-size="92" transform="matrix(1 0 0 1 3721.49 1015)">system cost</text><path d="M3128 1247.93C3128 1244.1 3131.1 1241 3134.93 1241L4315.07 1241C4318.9 1241 4322 1244.1 4322 1247.93L4322 1416.07C4322 1419.9 4318.9 1423 4315.07 1423L3134.93 1423C3131.1 1423 3128 1419.9 3128 1416.07Z" fill="#AED2D1" fill-rule="evenodd"/><text font-family="DengXian,DengXian_MSFontService,sans-serif" font-weight="400" font-size="92" transform="matrix(1 0 0 1 3174.93 1363)">最大功率</text><text font-family="Arial,Arial_MSFontService,sans-serif" font-weight="400" font-size="92" transform="matrix(1 0 0 1 3566.8 1363)">potential capacity </text><path d="M1950 1247.93C1950 1244.1 1953.1 1241 1956.93 1241L2781.07 1241C2784.9 1241 2788 1244.1 2788 1247.93L2788 1416.07C2788 1419.9 2784.9 1423 2781.07 1423L1956.93 1423C1953.1 1423 1950 1419.9 1950 1416.07Z" fill="#AED2D1" fill-rule="evenodd"/><text font-family="DengXian,DengXian_MSFontService,sans-serif" font-weight="400" font-size="92" transform="matrix(1 0 0 1 2065.96 1363)">流量</text><text font-family="Arial,Arial_MSFontService,sans-serif" font-weight="400" font-size="92" transform="matrix(1 0 0 1 2274.5 1363)">discharge</text><path d="M3730.81 753.378 3731.85 841.311 3711.23 841.555 3710.19 753.622ZM3752.35 830.756 3722.15 892.992 3690.48 831.486Z" fill="#96BDBB"/><path d="M4316.5 1001.5C4348.26 1001.5 4374 1021.64 4374 1046.48L4374 1110.02C4374 1134.86 4399.74 1155 4431.5 1155 4399.74 1155 4374 1175.14 4374 1199.98L4374 1263.52C4374 1288.36 4348.26 1308.5 4316.5 1308.5" stroke="#96BDBB" stroke-width="20.625" stroke-miterlimit="8" fill="none" fill-rule="evenodd"/><text font-family="DengXian,DengXian_MSFontService,sans-serif" font-weight="400" font-size="73" transform="matrix(1 0 0 1 4769.34 491)">候选坝高</text><text font-family="DengXian,DengXian_MSFontService,sans-serif" font-weight="400" font-size="73" transform="matrix(1 0 0 1 5062.67 491)">10~300m</text><text font-family="DengXian,DengXian_MSFontService,sans-serif" font-weight="400" font-size="83" transform="matrix(1 0 0 1 4923.57 1114)">最小化</text><path d="M4450 1159 4868.97 1159 4868.97 1262.17 4896 1262.17 4857.6 1297 4819.21 1262.17 4846.24 1262.17 4846.24 1181.73 4450 1181.73Z" fill="#96BDBB" fill-rule="evenodd"/><path d="M3233 1797.68C3233 1792.89 3236.89 1789 3241.68 1789L4141.32 1789C4146.11 1789 4150 1792.89 4150 1797.68L4150 2008.32C4150 2013.11 4146.11 2017 4141.32 2017L3241.68 2017C3236.89 2017 3233 2013.11 3233 2008.32Z" fill="#AED2D1" fill-rule="evenodd"/><text font-family="DengXian,DengXian_MSFontService,sans-serif" font-weight="400" font-size="92" transform="matrix(1 0 0 1 3462.59 1879)">逐小时出力</text><text font-family="Arial,Arial_MSFontService,sans-serif" font-weight="400" font-size="92" transform="matrix(1 0 0 1 3427.07 1992)">hourly output</text><path d="M2788.5 1322.19 3076.53 1322.19 3076.53 1342.81 2788.5 1342.81ZM3066.22 1301.56 3128.09 1332.5 3066.22 1363.44Z" fill="#96BDBB"/><path d="M2787.5 855.5C2818.15 855.5 2843 874.94 2843 898.92L2843 950.08C2843 974.06 2867.85 993.5 2898.5 993.5 2867.85 993.5 2843 1012.94 2843 1036.92L2843 1088.08C2843 1112.06 2818.15 1131.5 2787.5 1131.5" stroke="#96BDBB" stroke-width="20.625" stroke-miterlimit="8" fill="none" fill-rule="evenodd"/><path d="M2917.61 988.188 3069.97 989.768 3069.76 1010.39 2917.39 1008.81ZM3059.87 969.037 3121.43 1000.61 3059.23 1030.91Z" fill="#96BDBB"/><path d="M4467 1797.68C4467 1792.89 4470.89 1789 4475.68 1789L5354.32 1789C5359.11 1789 5363 1792.89 5363 1797.68L5363 2008.32C5363 2013.11 5359.11 2017 5354.32 2017L4475.68 2017C4470.89 2017 4467 2013.11 4467 2008.32Z" fill="#AED2D1" fill-rule="evenodd"/><text font-family="DengXian,DengXian_MSFontService,sans-serif" font-weight="400" font-size="92" transform="matrix(1 0 0 1 4639.84 1879)">最大装机潜力</text><text font-family="Arial,Arial_MSFontService,sans-serif" font-weight="400" font-size="92" transform="matrix(1 0 0 1 4512.08 1992)">installation potential</text><path d="M0 446 0 27.0327 103.167 27.0327 103.167 0 138 38.3958 103.167 76.7912 103.167 49.7585 22.7258 49.7585 22.7258 446Z" fill="#96BDBB" fill-rule="evenodd" transform="matrix(-6.12323e-17 -1 -1 6.12323e-17 4896 1136)"/><path d="M10.3125-0.0054396 10.4224 208.423-10.2026 208.434-10.3125 0.0054396ZM31.042 198.1 0.137139 259.991-30.833 198.132Z" fill="#96BDBB" transform="matrix(-1 0 0 1 4850.64 1538.5)"/><path d="M0-10.3125 1146.7-10.3125 1146.7 79.8124 1126.08 79.8124 1126.08 0 1136.39 10.3125 0 10.3125ZM1167.33 69.4999 1136.39 131.375 1105.45 69.4999Z" fill="#96BDBB" transform="matrix(-1 1.22465e-16 1.22465e-16 1 4828.89 1657.5)"/><path d="M4578.5 526 4425 485.801 4425 485.801 4425 432 4732 432 4732 485.801 4732 485.801Z" fill="#AED2D1" fill-rule="evenodd"/><path d="M0-10.3125 490.003-10.3125 490.003 812.688 469.378 812.688 469.378 0 479.69 10.3125 0 10.3125ZM510.628 802.375 479.69 864.25 448.753 802.375Z" fill="#96BDBB" transform="matrix(1.83697e-16 1 1 -1.83697e-16 2369.5 1423.5)"/><path d="M1948 2189.26C1948 2153.22 1977.22 2124 2013.26 2124L5349.74 2124C5385.78 2124 5415 2153.22 5415 2189.26L5415 3328.74C5415 3364.78 5385.78 3394 5349.74 3394L2013.26 3394C1977.22 3394 1948 3364.78 1948 3328.74Z" fill="#AED2D1" fill-rule="evenodd"/><text font-family="Microsoft YaHei,Microsoft YaHei_MSFontService,sans-serif" font-weight="400" font-size="83" transform="matrix(1 0 0 1 2016.02 2438)">初始</text><text font-family="Microsoft YaHei,Microsoft YaHei_MSFontService,sans-serif" font-weight="400" font-size="83" transform="matrix(1 0 0 1 2016.02 2537)">识别</text><text font-family="Microsoft YaHei,Microsoft YaHei_MSFontService,sans-serif" font-weight="400" font-size="83" transform="matrix(1 0 0 1 2016.02 2636)">的潜</text><text font-family="Microsoft YaHei,Microsoft YaHei_MSFontService,sans-serif" font-weight="400" font-size="83" transform="matrix(1 0 0 1 2016.02 2735)">在库</text><text font-family="Microsoft YaHei,Microsoft YaHei_MSFontService,sans-serif" font-weight="400" font-size="83" transform="matrix(1 0 0 1 2016.02 2834)">容对</text><text font-family="Microsoft YaHei,Microsoft YaHei_MSFontService,sans-serif" font-weight="400" font-size="83" transform="matrix(1 0 0 1 2057.27 2933)">：</text><text font-family="Microsoft YaHei,Microsoft YaHei_MSFontService,sans-serif" font-weight="400" font-size="83" transform="matrix(1 0 0 1 2016.02 3032)">十二</text><text font-family="Microsoft YaHei,Microsoft YaHei_MSFontService,sans-serif" font-weight="400" font-size="83" transform="matrix(1 0 0 1 2016.02 3131)">万组</text><path d="M2259 2180.93C2259 2177.1 2262.1 2174 2265.93 2174L3226.07 2174C3229.9 2174 3233 2177.1 3233 2180.93L3233 2349.07C3233 2352.9 3229.9 2356 3226.07 2356L2265.93 2356C2262.1 2356 2259 2352.9 2259 2349.07Z" fill="#96BDBB" fill-rule="evenodd"/><text font-family="DengXian,DengXian_MSFontService,sans-serif" font-weight="400" font-size="92" transform="matrix(1 0 0 1 2310.66 2296)">水头高度</text><text font-family="Arial,Arial_MSFontService,sans-serif" font-weight="400" font-size="92" transform="matrix(1 0 0 1 2702.54 2296)">head height</text><path d="M3329 2177.93C3329 2174.1 3332.1 2171 3335.93 2171L4297.07 2171C4300.9 2171 4304 2174.1 4304 2177.93L4304 2346.07C4304 2349.9 4300.9 2353 4297.07 2353L3335.93 2353C3332.1 2353 3329 2349.9 3329 2346.07Z" fill="#96BDBB" fill-rule="evenodd"/><text font-family="DengXian,DengXian_MSFontService,sans-serif" font-weight="400" font-size="92" transform="matrix(1 0 0 1 3556.82 2293)">距高比</text><text font-family="Arial,Arial_MSFontService,sans-serif" font-weight="400" font-size="92" transform="matrix(1 0 0 1 3857.03 2293)">slope</text><path d="M4400 2180.93C4400 2177.1 4403.1 2174 4406.93 2174L5367.07 2174C5370.9 2174 5374 2177.1 5374 2180.93L5374 2349.07C5374 2352.9 5370.9 2356 5367.07 2356L4406.93 2356C4403.1 2356 4400 2352.9 4400 2349.07Z" fill="#96BDBB" fill-rule="evenodd"/><text font-family="DengXian,DengXian_MSFontService,sans-serif" font-weight="400" font-size="92" transform="matrix(1 0 0 1 4556.35 2296)">坝高</text><text font-family="Arial,Arial_MSFontService,sans-serif" font-weight="400" font-size="92" transform="matrix(1 0 0 1 4764.89 2296)">dam height</text><path d="M3748.5 2483 3595 2432.97 3595 2432.97 3595 2366 3902 2366 3902 2432.97 3902 2432.97Z" fill="#96BDBB" fill-rule="evenodd"/><path d="M2259 2501.93C2259 2498.1 2262.1 2495 2265.93 2495L3226.07 2495C3229.9 2495 3233 2498.1 3233 2501.93L3233 2670.07C3233 2673.9 3229.9 2677 3226.07 2677L2265.93 2677C2262.1 2677 2259 2673.9 2259 2670.07Z" fill="#96BDBB" fill-rule="evenodd"/><text font-family="DengXian,DengXian_MSFontService,sans-serif" font-weight="400" font-size="92" transform="matrix(1 0 0 1 2420.09 2617)">泥炭地</text><text font-family="Arial,Arial_MSFontService,sans-serif" font-weight="400" font-size="92" transform="matrix(1 0 0 1 2720.3 2617)">peatland</text><path d="M3329 2499.89C3329 2496.09 3332.09 2493 3335.89 2493L4297.11 2493C4300.91 2493 4304 2496.09 4304 2499.89L4304 2667.11C4304 2670.91 4300.91 2674 4297.11 2674L3335.89 2674C3332.09 2674 3329 2670.91 3329 2667.11Z" fill="#96BDBB" fill-rule="evenodd"/><text font-family="DengXian,DengXian_MSFontService,sans-serif" font-weight="400" font-size="92" transform="matrix(1 0 0 1 3409.58 2615)">保护区</text><text font-family="Arial,Arial_MSFontService,sans-serif" font-weight="400" font-size="92" transform="matrix(1 0 0 1 3709.79 2615)">reserve area</text><path d="M4400 2501.93C4400 2498.1 4403.1 2495 4406.93 2495L5367.07 2495C5370.9 2495 5374 2498.1 5374 2501.93L5374 2670.07C5374 2673.9 5370.9 2677 5367.07 2677L4406.93 2677C4403.1 2677 4400 2673.9 4400 2670.07Z" fill="#96BDBB" fill-rule="evenodd"/><text font-family="DengXian,DengXian_MSFontService,sans-serif" font-weight="400" font-size="92" transform="matrix(1 0 0 1 4497.62 2617)">地震带</text><text font-family="Arial,Arial_MSFontService,sans-serif" font-weight="400" font-size="92" transform="matrix(1 0 0 1 4797.83 2617)">seismic belt</text><path d="M3748.5 2799 3595 2748.54 3595 2748.54 3595 2681 3902 2681 3902 2748.54 3902 2748.54Z" fill="#96BDBB" fill-rule="evenodd"/><path d="M2274 2822.93C2274 2819.1 2277.1 2816 2280.93 2816L3242.07 2816C3245.9 2816 3249 2819.1 3249 2822.93L3249 2991.07C3249 2994.9 3245.9 2998 3242.07 2998L2280.93 2998C2277.1 2998 2274 2994.9 2274 2991.07Z" fill="#96BDBB" fill-rule="evenodd"/><text font-family="DengXian,DengXian_MSFontService,sans-serif" font-weight="400" font-size="92" transform="matrix(1 0 0 1 2488.93 2938)">容量</text><text font-family="Arial,Arial_MSFontService,sans-serif" font-weight="400" font-size="92" transform="matrix(1 0 0 1 2697.47 2938)">capacity</text><path d="M3345 2820.93C3345 2817.1 3348.1 2814 3351.93 2814L4312.07 2814C4315.9 2814 4319 2817.1 4319 2820.93L4319 2989.07C4319 2992.9 4315.9 2996 4312.07 2996L3351.93 2996C3348.1 2996 3345 2992.9 3345 2989.07Z" fill="#96BDBB" fill-rule="evenodd"/><text font-family="DengXian,DengXian_MSFontService,sans-serif" font-weight="400" font-size="92" transform="matrix(1 0 0 1 3651.16 2936)">电网</text><text font-family="Arial,Arial_MSFontService,sans-serif" font-weight="400" font-size="92" transform="matrix(1 0 0 1 3859.7 2936)">grid</text><path d="M4415 2822.93C4415 2819.1 4418.1 2816 4421.93 2816L5383.07 2816C5386.9 2816 5390 2819.1 5390 2822.93L5390 2991.07C5390 2994.9 5386.9 2998 5383.07 2998L4421.93 2998C4418.1 2998 4415 2994.9 4415 2991.07Z" fill="#96BDBB" fill-rule="evenodd"/><text font-family="DengXian,DengXian_MSFontService,sans-serif" font-weight="400" font-size="92" transform="matrix(1 0 0 1 4536.1 2938)">水源</text><text font-family="Arial,Arial_MSFontService,sans-serif" font-weight="400" font-size="92" transform="matrix(1 0 0 1 4744.64 2938)">water source</text><path d="M3748.5 3127 3595 3076.54 3595 3076.54 3595 3009 3902 3009 3902 3076.54 3902 3076.54Z" fill="#96BDBB" fill-rule="evenodd"/><path d="M2274 3173.9C2274 3170.09 2277.09 3167 2280.9 3167L5367.1 3167C5370.91 3167 5374 3170.09 5374 3173.9L5374 3341.1C5374 3344.91 5370.91 3348 5367.1 3348L2280.9 3348C2277.09 3348 2274 3344.91 2274 3341.1Z" fill="#96BDBB" fill-rule="evenodd"/><text font-family="DengXian,DengXian_MSFontService,sans-serif" font-weight="400" font-size="92" transform="matrix(1 0 0 1 2536.36 3289)">逐步筛选得到可行抽水蓄能潜力</text><text font-family="Arial,Arial_MSFontService,sans-serif" font-weight="400" font-size="92" transform="matrix(1 0 0 1 3844.9 3289)">screen out the potential of PHS</text><rect x="3803" y="3584" width="1685" height="756" fill="#CCE5E1"/><text font-family="DengXian,DengXian_MSFontService,sans-serif" font-weight="400" font-size="110" transform="matrix(1 0 0 1 4370.78 3728)">碳存储评估</text><text font-family="Arial,Arial_MSFontService,sans-serif" font-weight="400" font-size="110" transform="matrix(1 0 0 1 3970.88 3863)">Assessment of CO</text><text font-family="Arial,Arial_MSFontService,sans-serif" font-weight="400" font-size="64" transform="matrix(1 0 0 1 4887.55 3863)">2</text><text font-family="Arial,Arial_MSFontService,sans-serif" font-weight="400" font-size="110" transform="matrix(1 0 0 1 4953.44 3863)">storage</text><path d="M3836 3932.93C3836 3929.1 3839.1 3926 3842.93 3926L5413.07 3926C5416.9 3926 5420 3929.1 5420 3932.93L5420 4101.07C5420 4104.9 5416.9 4108 5413.07 4108L3842.93 4108C3839.1 4108 3836 4104.9 3836 4101.07Z" fill="#AED2D1" fill-rule="evenodd"/><text font-family="DengXian,DengXian_MSFontService,sans-serif" font-weight="400" font-size="92" transform="matrix(1 0 0 1 4217.11 4048)">咸水层</text><text font-family="DengXian,DengXian_MSFontService,sans-serif" font-weight="400" font-size="92" transform="matrix(1 0 0 1 4517.31 4048)">saline aquifer</text><path d="M3836 4149.93C3836 4146.1 3839.1 4143 3842.93 4143L5413.07 4143C5416.9 4143 5420 4146.1 5420 4149.93L5420 4318.07C5420 4321.9 5416.9 4325 5413.07 4325L3842.93 4325C3839.1 4325 3836 4321.9 3836 4318.07Z" fill="#AED2D1" fill-rule="evenodd"/><text font-family="DengXian,DengXian_MSFontService,sans-serif" font-weight="400" font-size="92" transform="matrix(1 0 0 1 4144.35 4265)">油气田</text><text font-family="DengXian,DengXian_MSFontService,sans-serif" font-weight="400" font-size="92" transform="matrix(1 0 0 1 4444.55 4265)">oil/gas reservoirs</text><rect x="-1587" y="3584" width="3168" height="756" fill="#CCE5E1"/><text font-family="DengXian,DengXian_MSFontService,sans-serif" font-weight="400" font-size="110" transform="matrix(1 0 0 1 -329.93 3739)">生物质能评估</text><text font-family="Arial,Arial_MSFontService,sans-serif" font-weight="400" font-size="110" transform="matrix(1 0 0 1 -580.868 3874)">Assessment of biomass</text><path d="M-1508 3960.38C-1508 3953.54-1502.46 3948-1495.62 3948L-610.379 3948C-603.542 3948-598 3953.54-598 3960.38L-598 4260.62C-598 4267.46-603.542 4273-610.379 4273L-1495.62 4273C-1502.46 4273-1508 4267.46-1508 4260.62Z" fill="#AED2D1" fill-rule="evenodd"/><text font-family="DengXian,DengXian_MSFontService,sans-serif" font-weight="400" font-size="92" transform="matrix(1 0 0 1 -1282.12 4087)">林业残余物</text><text font-family="Arial,Arial_MSFontService,sans-serif" font-weight="400" font-size="92" transform="matrix(1 0 0 1 -1353.16 4200)">forest residues</text><path d="M-455 3960.38C-455 3953.54-449.458 3948-442.621 3948L441.621 3948C448.458 3948 454 3953.54 454 3960.38L454 4260.62C454 4267.46 448.458 4273 441.621 4273L-442.621 4273C-449.458 4273-455 4267.46-455 4260.62Z" fill="#AED2D1" fill-rule="evenodd"/><text font-family="DengXian,DengXian_MSFontService,sans-serif" font-weight="400" font-size="92" transform="matrix(1 0 0 1 -229.829 4087)">农业残余物</text><text font-family="Arial,Arial_MSFontService,sans-serif" font-weight="400" font-size="92" transform="matrix(1 0 0 1 -410.871 4200)">agricultural residues</text><path d="M597 3960.38C597 3953.54 602.543 3948 609.38 3948L1493.62 3948C1500.46 3948 1506 3953.54 1506 3960.38L1506 4260.62C1506 4267.46 1500.46 4273 1493.62 4273L609.38 4273C602.543 4273 597 4267.46 597 4260.62Z" fill="#AED2D1" fill-rule="evenodd"/><text font-family="DengXian,DengXian_MSFontService,sans-serif" font-weight="400" font-size="92" transform="matrix(1 0 0 1 868.292 4087)">能源作物</text><text font-family="Arial,Arial_MSFontService,sans-serif" font-weight="400" font-size="92" transform="matrix(1 0 0 1 786.938 4200)">energy crops</text><rect x="1895" y="3584" width="1582" height="756" fill="#CCE5E1"/><path d="M1794 3962 1743.54 4116 1743.54 4116 1676 4116 1676 3808 1743.54 3808 1743.54 3808Z" fill="#96BDBB" fill-rule="evenodd"/><path d="M3546 3962 3596.46 3808 3596.46 3808 3664 3808 3664 4116 3596.46 4116 3596.46 4116Z" fill="#96BDBB" fill-rule="evenodd"/><text font-family="Microsoft YaHei,Microsoft YaHei_MSFontService,sans-serif" font-weight="400" font-size="110" transform="matrix(1 0 0 1 2219.1 3944)">二氧化碳</text><text font-family="Microsoft YaHei,Microsoft YaHei_MSFontService,sans-serif" font-weight="400" font-size="110" transform="matrix(1 0 0 1 2659.1 3944)">-</text><text font-family="Microsoft YaHei,Microsoft YaHei_MSFontService,sans-serif" font-weight="400" font-size="110" transform="matrix(1 0 0 1 2706.65 3944)">源汇匹配</text><text font-family="Arial,Arial_MSFontService,sans-serif" font-weight="400" font-size="110" transform="matrix(1 0 0 1 2050.67 4077)">Source</text><text font-family="Arial,Arial_MSFontService,sans-serif" font-weight="400" font-size="110" transform="matrix(1 0 0 1 2399.57 4077)">-</text><text font-family="Arial,Arial_MSFontService,sans-serif" font-weight="400" font-size="110" transform="matrix(1 0 0 1 2436.24 4077)">sink match of CO</text><text font-family="Arial,Arial_MSFontService,sans-serif" font-weight="400" font-size="64" transform="matrix(1 0 0 1 3279.57 4077)">2</text></g></svg>